# xmcd
#
# Track frame offsets: 
#        150
#        15599
#        28509
#        41454
#        51815
#        64043
#        83780
#        95181
#        106006
#        116410
#        125084
#        140321
#        152175
#        164573
#        175447
#        189475
#
# Disc length: 2636 seconds
#
# Revision: 0
# Processed by: cddbd v1.5.2PL0 Copyright (c) Steve Scherf et al.
# Submitted via: ExactAudioCopyFreeDBPlugin 1.0
#
DISCID=d40a4a10
DTITLE=Varios - Life At The Frontiers - Country - CD3
DYEAR=2012
DGENRE=Country
TTITLE0=Johnny Cash - Darlin' Companion
TTITLE1=Willie Nelson - Any Old Arms Won't Do
TTITLE2=Johnny Cash - Folsom Prison Blues
TTITLE3=Willie Nelson - I Feel Sorry For Him
TTITLE4=Johnny Cash and The Tennessee Two - Home Of The Blues
TTITLE5=Kenny Rogers - Lay It Down
TTITLE6=Johnny Cash - Don't Make Me Go
TTITLE7=Johnny Cash - You Win Again
TTITLE8=Willie Nelson - Broken Promises
TTITLE9=Johnny Cash - Big River
TTITLE10=Frankie Laine - Sixteen Tns
TTITLE11=Kenny Rogers - Calico Silver
TTITLE12=Willie Nelson - I Can't Find The Time
TTITLE13=Johnny Cash and The Tennessee Two - I Heard That Lonesome Whist
TTITLE13=le
TTITLE14=Tom T. Hall - Week In A Country Jail
TTITLE15=Johnny Cash and The Tennessee Two - Country Boy
EXTD=
EXTT0=
EXTT1=
EXTT2=
EXTT3=
EXTT4=
EXTT5=
EXTT6=
EXTT7=
EXTT8=
EXTT9=
EXTT10=
EXTT11=
EXTT12=
EXTT13=
EXTT14=
EXTT15=
PLAYORDER=
